<svg class="svg replaced-svg" height="22px" version="1.1" viewBox="0 0 97 22" width="97px" xmlns="http://www.w3.org/2000/svg" xmlns:xlink="http://www.w3.org/1999/xlink">
<title>insigneo_logo</title>
<g fill="none" fill-rule="evenodd" id="Page-1" stroke="none" stroke-width="1">
<g fill="#00B3E6" fill-rule="nonzero" id="insigneo_logo" transform="translate(0.700000, 0.700000)">
<g id="Group" transform="translate(0.000000, -0.000000)">
<path d="M85.7393407,15.2824773 C84.7147889,14.7222544 83.9224016,13.929867 83.3621786,12.9053152 C82.8019557,11.8807634 82.5243678,10.6997529 82.5243678,9.35723674 C82.5243678,8.02986173 82.8019557,6.85894538 83.3621786,5.83439357 C83.9224016,4.80984175 84.7147889,4.01240734 85.7393407,3.44713737 C86.7638925,2.87682036 87.9398559,2.59418537 89.2621839,2.59418537 C90.5895589,2.59418537 91.7604753,2.87682036 92.7850271,3.44713737 C93.8095789,4.01745439 94.6019662,4.80984175 95.1621892,5.83439357 C95.7224121,6.85894538 96,8.03490879 96,9.35723674 C96,10.6997529 95.7224121,11.8858104 95.1621892,12.9053152 C94.6019662,13.929867 93.8095789,14.7222544 92.7850271,15.2824773 C91.7604753,15.8427002 90.5845119,16.1203545 89.2621839,16.1203545 C87.9398559,16.1253352 86.7638925,15.8427002 85.7393407,15.2824773 Z M92.0935808,12.5217391 C92.8102623,11.7041165 93.1635561,10.6492824 93.1635561,9.35723674 C93.1635561,8.0651911 92.8052153,7.01035697 92.0935808,6.19273435 C91.3768992,5.37511172 90.4381473,4.9663004 89.267231,4.9663004 C88.0963146,4.9663004 87.1575627,5.37511172 86.4509752,6.19273435 C85.7443878,7.01035697 85.3910941,8.0651911 85.3910941,9.35723674 C85.3910941,10.6492824 85.7443878,11.7041165 86.4509752,12.5217391 C87.1575627,13.3393618 88.0963146,13.7481731 89.267231,13.7481731 C90.4331003,13.7481731 91.3768992,13.3393618 92.0935808,12.5217391 Z" id="Shape"></path>
<path d="M22.6007045,11.6031754 C22.651175,12.2895747 22.9741864,12.8548446 23.5697387,13.2939383 C24.165291,13.7330319 24.9324431,13.9500552 25.8812891,13.9500552 C26.724147,13.9500552 27.4105462,13.7935966 27.9354398,13.4705851 C28.4603333,13.1526208 28.7227801,12.7286683 28.7227801,12.1936807 C28.7227801,11.7444929 28.6016508,11.4113874 28.3593923,11.1893171 C28.1171337,10.9672467 27.7941223,10.805741 27.390358,10.709847 C26.9865938,10.613953 26.3607592,10.518059 25.5179013,10.4120709 C24.3621261,10.2758004 23.4132801,10.0890595 22.6663162,9.85689501 C21.9193523,9.62473056 21.3137059,9.25629567 20.8594711,8.74654329 C20.4052363,8.23679092 20.1730719,7.55543873 20.1730719,6.69239262 C20.1730719,5.8848641 20.4001893,5.16313548 20.8594711,4.53730088 C21.3137059,3.91146627 21.9445876,3.42190211 22.742022,3.07870249 C23.5445034,2.73550287 24.447926,2.56390305 25.4674307,2.56390305 C27.1380054,2.56390305 28.4906156,2.93233794 29.5353557,3.67425477 C30.5750486,4.4161716 31.1403186,5.45586457 31.2261185,6.79838074 L28.5158509,6.79838074 C28.4451922,6.1977814 28.147416,5.70317018 27.6124284,5.31454708 C27.0774407,4.92592398 26.4061826,4.73413595 25.5986541,4.73413595 C24.7911256,4.73413595 24.1350087,4.89059461 23.6353504,5.19846485 C23.1356921,5.5063351 22.8883865,5.93028758 22.8883865,6.46527522 C22.8883865,6.85894538 23.0145629,7.15672152 23.2618685,7.3535566 C23.5091741,7.55039167 23.8271384,7.69170916 24.2056674,7.76741496 C24.5841964,7.84312076 25.1948899,7.93396772 26.0377478,8.03995584 C27.1733347,8.16108512 28.1272278,8.34782609 28.904474,8.5951317 C29.6766732,8.84243731 30.2974607,9.24115451 30.7617896,9.78118921 C31.2261185,10.3212239 31.458283,11.0580937 31.458283,11.9867515 C31.458283,12.8144682 31.2160244,13.5412439 30.7365543,14.1670785 C30.2520372,14.7979601 29.5908732,15.2774302 28.7480154,15.6105357 C27.9051575,15.9486883 26.9563114,16.115241 25.9065244,16.115241 C24.1350087,16.115241 22.7016455,15.7165238 21.606435,14.9140424 C20.5112244,14.1115609 19.9510015,13.0062562 19.9156722,11.5981284 L22.6007045,11.5981284 L22.6007045,11.6031754 Z" id="Path"></path>
<polygon id="Path" points="33.4367278 2.75064403 36.2227012 2.75064403 36.2227012 15.9688765 33.4367278 15.9688765"></polygon>
<path d="M51.7121077,2.75064403 L51.7121077,15.4288418 C51.7121077,17.2861574 51.1619789,18.7296146 50.0617213,19.7541664 C48.9614636,20.7787183 47.2555596,21.2884706 44.9490563,21.2884706 C43.1573524,21.2884706 41.7038011,20.8897534 40.5833552,20.087272 C39.4629094,19.2847905 38.8421219,18.1542506 38.7260396,16.6906051 L41.5675306,16.6906051 C41.7391304,17.4325219 42.1378476,18.002839 42.7535881,18.4066032 C43.3743757,18.8103675 44.1718101,19.0122496 45.1559855,19.0122496 C47.6845592,19.0122496 48.9513695,17.7807686 48.9513695,15.3178066 L48.9513695,13.8440671 C47.9873824,15.2875243 46.5489722,16.0143 44.6411861,16.0143 C43.4349403,16.0143 42.359918,15.7417591 41.416119,15.2017244 C40.467273,14.6616897 39.7304032,13.8844435 39.1954156,12.8800799 C38.6604279,11.8757163 38.3929341,10.6795647 38.3929341,9.30676621 C38.3929341,7.9793912 38.665475,6.8135219 39.2055097,5.79401714 C39.7455444,4.77955943 40.4925083,3.99221913 41.4363072,3.43199621 C42.3851533,2.8717733 43.4500815,2.59418537 44.636139,2.59418537 C45.6354555,2.59418537 46.4934546,2.79102045 47.2202303,3.18973766 C47.9419589,3.58340781 48.5274171,4.12848956 48.9766048,4.81488881 L49.2844751,2.75064403 L51.7121077,2.75064403 Z M47.8914884,12.4712686 C48.5980758,11.6687871 48.9513695,10.6341412 48.9513695,9.36228379 C48.9513695,8.055097 48.5980758,6.99016876 47.8914884,6.17254613 C47.1849009,5.35492351 46.2562431,4.94611219 45.105515,4.94611219 C43.9497398,4.94611219 43.021082,5.34987645 42.3195416,6.15740497 C41.6129541,6.96493349 41.2596604,8.01472057 41.2596604,9.30676621 C41.2596604,10.5988118 41.6129541,11.6485989 42.3195416,12.4561274 C43.026129,13.263656 43.9547868,13.667467 45.105515,13.667467 C46.2562431,13.6724673 47.1849009,13.268703 47.8914884,12.4712686 Z" id="Shape"></path>
<path d="M68.9982651,5.8091583 C69.5382998,4.78460649 70.2953578,3.99221913 71.269439,3.43199621 C72.2435203,2.8717733 73.353872,2.59418537 74.6105883,2.59418537 C75.8824457,2.59418537 77.0079386,2.85158509 77.9820199,3.36638452 C78.9561012,3.88118395 79.7182062,4.61300668 80.2784291,5.56185269 C80.838652,6.5106987 81.1263341,7.62105042 81.1414752,8.89290784 C81.1414752,9.23610746 81.1162399,9.58940119 81.0657694,9.95278902 L71.0978392,9.95278902 L71.0978392,10.1092477 C71.168498,11.2650229 71.5268388,12.1734925 72.1829557,12.8447505 C72.8390726,13.5160086 73.7071658,13.8541612 74.7922822,13.8541612 C75.6502813,13.8541612 76.3770569,13.6522791 76.9625151,13.2485148 C77.5479733,12.8447505 77.9365964,12.2693865 78.1233374,11.5325167 L80.9093108,11.5325167 C80.6670522,12.8750329 80.0210294,13.9752905 78.9611482,14.8383366 C77.901267,15.7013827 76.5839861,16.1303822 74.9992114,16.1303822 C73.6213659,16.1303822 72.4201672,15.8527943 71.3956154,15.2925714 C70.3710636,14.7323485 69.5786762,13.9450081 69.0184533,12.9305504 C68.4582304,11.9160927 68.1806424,10.7350823 68.1806424,9.39256611 C68.1856895,8.02481468 68.4582304,6.83371011 68.9982651,5.8091583 Z M78.3100783,7.91377951 C78.1889491,6.94979233 77.805373,6.1977814 77.1593502,5.65269965 C76.5133274,5.11266495 75.7007518,4.84012407 74.7216235,4.84012407 C73.8081068,4.84012407 73.0207665,5.117712 72.3596025,5.67793491 C71.6984386,6.23815783 71.3148625,6.98007465 71.2088744,7.90873245 L78.3100783,7.90873245 L78.3100783,7.91377951 Z" id="Shape"></path>
<path d="M16.6603228,4.06287787 C15.6711004,3.0988907 14.5203722,2.57399716 12.0018926,2.57399716 C6.86903948,2.57399716 5.85962883,6.44508701 5.85962883,9.12507229 L5.85962883,15.9941118 L8.67588455,15.9941118 L8.67588455,12.0725514 L8.67588455,9.27648389 C8.67588455,8.01976763 8.86767257,4.99658272 12.0069397,4.99658272 C13.263656,4.99658272 14.0055728,5.3448294 14.5355134,6.00094632 C15.070501,6.65706325 15.3379948,7.61095631 15.3379948,8.86767257 L15.3379948,15.9941118 L18.1542506,15.9941118 L18.1542506,8.71121392 C18.1441565,6.57631039 17.6495452,5.02686504 16.6603228,4.06287787 Z" id="Path"></path>
<path d="M64.8899637,4.06287787 C63.9007413,3.0988907 62.7500131,2.57399716 60.2315336,2.57399716 C55.0986804,2.57399716 54.0892698,6.44508701 54.0892698,9.12507229 L54.0892698,15.9941118 L56.9055255,15.9941118 L56.9055255,12.0725514 L56.9055255,9.27648389 C56.9055255,8.01976763 57.0973135,4.99658272 60.2365806,4.99658272 C61.4932969,4.99658272 62.2352137,5.3448294 62.7651543,6.00094632 C63.3001419,6.65706325 63.5676358,7.61095631 63.5676358,8.86767257 L63.5676358,15.9941118 L66.3838915,15.9941118 L66.3838915,8.71121392 C66.3737974,6.57631039 65.8791862,5.02686504 64.8899637,4.06287787 Z" id="Path"></path>
<path d="M-2.33099557e-15,0 L-2.33099557e-15,2.35192682 L2.96766732,1.13558698 L2.96766732,0 L-2.33099557e-15,0 Z M-2.33099557e-15,15.9688765 L2.96766732,15.9688765 L2.96766732,2.74559697 L-2.33099557e-15,5.19846485 L-2.33099557e-15,15.9688765 Z" id="Shape"></path>
</g>
<rect height="1.10530466" id="Rectangle" width="2.89700857" x="33.3812102" y="-2.86891762e-15"></rect>
</g>
</g>
</svg>